solid OpenSCAD_Model
  facet normal 1 -0 0
    outer loop
      vertex 18.0834 0 1.6
      vertex 18.0834 2.95269 0
      vertex 18.0834 2.95269 1.6
    endloop
  endfacet
  facet normal 1 0 0
    outer loop
      vertex 18.0834 2.95269 0
      vertex 18.0834 0 1.6
      vertex 18.0834 0 0
    endloop
  endfacet
  facet normal -0 0 1
    outer loop
      vertex 0 2.95269 1.6
      vertex 18.0834 0 1.6
      vertex 18.0834 2.95269 1.6
    endloop
  endfacet
  facet normal 0 0 1
    outer loop
      vertex 18.0834 0 1.6
      vertex 0 2.95269 1.6
      vertex 0 0 1.6
    endloop
  endfacet
  facet normal 0 0 -1
    outer loop
      vertex 0 0 0
      vertex 18.0834 2.95269 0
      vertex 18.0834 0 0
    endloop
  endfacet
  facet normal -0 0 -1
    outer loop
      vertex 18.0834 2.95269 0
      vertex 0 0 0
      vertex 0 2.95269 0
    endloop
  endfacet
  facet normal -1 0 0
    outer loop
      vertex 0 0 0
      vertex 0 2.95269 1.6
      vertex 0 2.95269 0
    endloop
  endfacet
  facet normal -1 -0 0
    outer loop
      vertex 0 2.95269 1.6
      vertex 0 0 0
      vertex 0 0 1.6
    endloop
  endfacet
  facet normal 0 1 -0
    outer loop
      vertex 18.0834 2.95269 0
      vertex 0 2.95269 1.6
      vertex 18.0834 2.95269 1.6
    endloop
  endfacet
  facet normal 0 1 0
    outer loop
      vertex 0 2.95269 1.6
      vertex 18.0834 2.95269 0
      vertex 0 2.95269 0
    endloop
  endfacet
  facet normal 0 -1 0
    outer loop
      vertex 0 0 0
      vertex 18.0834 0 1.6
      vertex 0 0 1.6
    endloop
  endfacet
  facet normal 0 -1 -0
    outer loop
      vertex 18.0834 0 1.6
      vertex 0 0 0
      vertex 18.0834 0 0
    endloop
  endfacet
  facet normal 1 -0 0
    outer loop
      vertex 12.5192 5.95269 1.6
      vertex 12.5192 8.90538 0
      vertex 12.5192 8.90538 1.6
    endloop
  endfacet
  facet normal 1 0 0
    outer loop
      vertex 12.5192 8.90538 0
      vertex 12.5192 5.95269 1.6
      vertex 12.5192 5.95269 0
    endloop
  endfacet
  facet normal -0 0 1
    outer loop
      vertex 0 8.90538 1.6
      vertex 12.5192 5.95269 1.6
      vertex 12.5192 8.90538 1.6
    endloop
  endfacet
  facet normal 0 0 1
    outer loop
      vertex 12.5192 5.95269 1.6
      vertex 0 8.90538 1.6
      vertex 0 5.95269 1.6
    endloop
  endfacet
  facet normal 0 0 -1
    outer loop
      vertex 0 5.95269 0
      vertex 12.5192 8.90538 0
      vertex 12.5192 5.95269 0
    endloop
  endfacet
  facet normal -0 0 -1
    outer loop
      vertex 12.5192 8.90538 0
      vertex 0 5.95269 0
      vertex 0 8.90538 0
    endloop
  endfacet
  facet normal -1 0 0
    outer loop
      vertex 0 5.95269 0
      vertex 0 8.90538 1.6
      vertex 0 8.90538 0
    endloop
  endfacet
  facet normal -1 -0 0
    outer loop
      vertex 0 8.90538 1.6
      vertex 0 5.95269 0
      vertex 0 5.95269 1.6
    endloop
  endfacet
  facet normal 0 1 -0
    outer loop
      vertex 12.5192 8.90538 0
      vertex 0 8.90538 1.6
      vertex 12.5192 8.90538 1.6
    endloop
  endfacet
  facet normal 0 1 0
    outer loop
      vertex 0 8.90538 1.6
      vertex 12.5192 8.90538 0
      vertex 0 8.90538 0
    endloop
  endfacet
  facet normal 0 -1 0
    outer loop
      vertex 0 5.95269 0
      vertex 12.5192 5.95269 1.6
      vertex 0 5.95269 1.6
    endloop
  endfacet
  facet normal 0 -1 -0
    outer loop
      vertex 12.5192 5.95269 1.6
      vertex 0 5.95269 0
      vertex 12.5192 5.95269 0
    endloop
  endfacet
  facet normal 1 -0 0
    outer loop
      vertex 12.5192 11.9054 1.6
      vertex 12.5192 14.8581 0
      vertex 12.5192 14.8581 1.6
    endloop
  endfacet
  facet normal 1 0 0
    outer loop
      vertex 12.5192 14.8581 0
      vertex 12.5192 11.9054 1.6
      vertex 12.5192 11.9054 0
    endloop
  endfacet
  facet normal -0 0 1
    outer loop
      vertex 0 14.8581 1.6
      vertex 12.5192 11.9054 1.6
      vertex 12.5192 14.8581 1.6
    endloop
  endfacet
  facet normal 0 0 1
    outer loop
      vertex 12.5192 11.9054 1.6
      vertex 0 14.8581 1.6
      vertex 0 11.9054 1.6
    endloop
  endfacet
  facet normal 0 0 -1
    outer loop
      vertex 0 11.9054 0
      vertex 12.5192 14.8581 0
      vertex 12.5192 11.9054 0
    endloop
  endfacet
  facet normal -0 0 -1
    outer loop
      vertex 12.5192 14.8581 0
      vertex 0 11.9054 0
      vertex 0 14.8581 0
    endloop
  endfacet
  facet normal -1 0 0
    outer loop
      vertex 0 11.9054 0
      vertex 0 14.8581 1.6
      vertex 0 14.8581 0
    endloop
  endfacet
  facet normal -1 -0 0
    outer loop
      vertex 0 14.8581 1.6
      vertex 0 11.9054 0
      vertex 0 11.9054 1.6
    endloop
  endfacet
  facet normal 0 1 -0
    outer loop
      vertex 12.5192 14.8581 0
      vertex 0 14.8581 1.6
      vertex 12.5192 14.8581 1.6
    endloop
  endfacet
  facet normal 0 1 0
    outer loop
      vertex 0 14.8581 1.6
      vertex 12.5192 14.8581 0
      vertex 0 14.8581 0
    endloop
  endfacet
  facet normal 0 -1 0
    outer loop
      vertex 0 11.9054 0
      vertex 12.5192 11.9054 1.6
      vertex 0 11.9054 1.6
    endloop
  endfacet
  facet normal 0 -1 -0
    outer loop
      vertex 12.5192 11.9054 1.6
      vertex 0 11.9054 0
      vertex 12.5192 11.9054 0
    endloop
  endfacet
endsolid OpenSCAD_Model
